PathFileType	4	(X/Y/Z)	C:\Users\Biomechanik\SynologyDrive\AlexP\Athlete_03\Athlete_3_25_03_31\Squat_35kg_02\marker_experimental.trc
DataRate	CameraRate	NumFrames	NumMarkers	Units	OrigDataRate	OrigDataStartFrame	OrigNumFrames
200.000000	200.000000	4	55	mm	200.000000	265	530
Frame#	Time	BL			BR			GLAB			RFHD			LFHD			C7			T6			SPINMOL			SPINM2			SPINM3			T12			BELTOL			BELT2			BELT3			SACROL			SACR2			SACR3			LTHOL			LTH2			LTH3			LSHAOL			LSHA2			LSHA3			LHEE			LTOE			LM5			RTHOL			RTH2			RTH3			RSHAOL			RSHA2			RSHA3			RHEE			RTOE			RM5			STRN			XIPH			LACR			LUAOL			LUA2			LUA3			LLAOL			LLA2			LLA3			LWRR			LWRU			RACR			RUAOL			RUA2			RUA3			RLAOL			RLA2			RLA3			RWRR			RWRU			
		X1	Y1	Z1	X2	Y2	Z2	X3	Y3	Z3	X4	Y4	Z4	X5	Y5	Z5	X6	Y6	Z6	X7	Y7	Z7	X8	Y8	Z8	X9	Y9	Z9	X10	Y10	Z10	X11	Y11	Z11	X12	Y12	Z12	X13	Y13	Z13	X14	Y14	Z14	X15	Y15	Z15	X16	Y16	Z16	X17	Y17	Z17	X18	Y18	Z18	X19	Y19	Z19	X20	Y20	Z20	X21	Y21	Z21	X22	Y22	Z22	X23	Y23	Z23	X24	Y24	Z24	X25	Y25	Z25	X26	Y26	Z26	X27	Y27	Z27	X28	Y28	Z28	X29	Y29	Z29	X30	Y30	Z30	X31	Y31	Z31	X32	Y32	Z32	X33	Y33	Z33	X34	Y34	Z34	X35	Y35	Z35	X36	Y36	Z36	X37	Y37	Z37	X38	Y38	Z38	X39	Y39	Z39	X40	Y40	Z40	X41	Y41	Z41	X42	Y42	Z42	X43	Y43	Z43	X44	Y44	Z44	X45	Y45	Z45	X46	Y46	Z46	X47	Y47	Z47	X48	Y48	Z48	X49	Y49	Z49	X50	Y50	Z50	X51	Y51	Z51	X52	Y52	Z52	X53	Y53	Z53	X54	Y54	Z54	X55	Y55	Z55	

266	1.325	229.2006683349609	813.0299072265626	-2226.429931640625	212.1698455810547	844.3824462890625	-205.9803924560546	502.751708984375	1008.570251464844	-1177.742553710938	448.7143859863281	1030.389404296875	-1116.251953125	461.2118225097656	1030.818359375	-1252.218017578125	271.8370971679688	892.2814331054689	-1192.502075195312	148.9172821044922	783.9674682617189	-1201.178955078125	128.8868408203125	764.3248291015626	-1219.7158203125	119.0321807861328	756.9545288085939	-1171.018432617188	89.84712219238281	711.5589599609376	-1209.953857421875	61.2628173828125	672.1007690429689	-1212.532836914062	26.94076728820801	665.1655883789064	-1227.59912109375	23.895751953125	661.8399658203126	-1177.358764648438	-13.41023063659668	615.9900512695314	-1208.46044921875	-77.95283508300781	492.5377807617188	-1236.537353515625	-76.99330139160156	492.9766235351563	-1185.124877929688	-86.23929595947266	432.2437133789063	-1209.822143554688	130.8910980224609	383.0633544921876	-1502.134033203125	179.9621124267578	327.1131896972657	-1527.556884765625	183.5152893066406	376.7360229492189	-1532.877685546875	226.7500152587891	292.991424560547	-1616.447875976562	162.5310974121094	256.0065917968751	-1586.648193359375	205.4099578857422	236.3376464843751	-1604.640747070312	80.82227325439453	71.14070892333993	-1484.830078125	285.7895812988281	48.05380249023447	-1544.568115234375	215.7900543212891	25.02634811401377	-1633.817260742188	99.29268646240234	379.0858764648438	-904.4501342773438	141.8421936035156	436.7985229492188	-868.8729248046875	149.3125305175781	387.6101989746094	-868.0528564453125	191.1170654296875	312.8929748535157	-778.1190795898438	193.4043121337891	234.0867614746094	-777.5450439453125	158.9307098388672	263.3872985839844	-798.00390625	59.55302810668945	66.89883422851568	-919.1030883789062	251.9334259033203	46.38689422607427	-836.4284057617188	169.773681640625	37.16952514648442	-756.6337890625	383.6285095214844	731.4661254882814	-1195.183471679688	341.2626647949219	589.2888793945314	-1194.192626953125	306.9137878417969	845.2419433593751	-1358.900146484375	183.2519378662109	752.5560302734376	-1455.102783203125	130.4956359863281	714.5011596679689	-1444.347778320312	157.0275268554688	701.0333862304689	-1485.710083007812	125.5234985351562	634.9522705078126	-1555.16015625	198.0227661132812	624.6188354492189	-1587.266479492188	170.6211853027344	668.4058227539064	-1577.65283203125	233.0493927001953	745.7531738281251	-1610.01806640625	249.6401977539062	766.8601684570314	-1535.331420898438	309.7582702636719	842.5190429687501	-1037.219482421875	187.3987274169922	752.2871093750001	-952.0615844726562	153.0746459960938	704.3272094726562	-922.3186645507812	134.5470581054688	717.4676513671876	-969.5382080078125	131.6980590820312	635.3384399414062	-835.8834228515625	145.5490417480469	713.2698364257812	-824.7996215820312	174.7953338623047	673.7154541015625	-811.9616088867188	219.5939331054688	753.4442138671875	-790.7132568359375	250.0815277099609	781.5257568359375	-859.5931396484375	
267	1.33	229.2523193359375	811.0764160156251	-2226.44677734375	212.032470703125	842.5988159179688	-206.0034942626953	502.5809936523438	1006.8173828125	-1177.67138671875	448.5293273925781	1028.6015625	-1116.185668945312	461.0355224609375	1029.046752929688	-1252.148071289062	271.7486877441406	890.4700317382814	-1192.457763671875	148.8247222900391	782.2595214843751	-1201.163452148438	128.8428039550781	762.6223754882814	-1219.727172851562	118.9433898925781	755.2636108398439	-1171.04052734375	89.72567749023438	709.8911743164064	-1209.972778320312	61.06086349487305	670.5317993164064	-1212.566284179688	26.74797821044922	663.5835571289064	-1227.646606445312	23.67966651916504	660.2508544921876	-1177.41162109375	-13.56676578521729	614.3739624023439	-1208.513916015625	-78.00592041015625	490.5545654296876	-1236.6328125	-77.06523132324219	491.0129394531251	-1185.2265625	-86.17259216308594	430.2361755371094	-1209.895874023438	131.1831817626953	381.9289855957032	-1502.082275390625	180.4303283691406	326.2728576660157	-1527.657836914062	183.8182220458984	375.8847656250001	-1532.84375	227.0009613037109	292.866668701172	-1616.396362304688	162.7341766357422	255.9735107421876	-1586.58251953125	205.5825958251953	236.2653350830079	-1604.58935546875	80.84734344482422	71.11961364746102	-1484.772338867188	285.8001098632812	48.03427124023447	-1544.520263671875	215.7949523925781	25.06398963928233	-1633.779907226562	99.346435546875	378.0462951660157	-904.4251708984375	141.6254119873047	436.0305786132813	-868.9904174804688	149.2916259765625	386.8760986328126	-868.01318359375	191.097900390625	312.8642578125001	-778.0979614257812	193.4173126220703	234.0523223876954	-777.5538330078125	158.9400024414062	263.3535156250001	-798.0143432617188	59.59195709228516	66.8902206420899	-919.1588134765625	251.9347686767578	46.37846374511724	-836.4725952148438	169.7906799316406	37.19925308227544	-756.6734008789062	383.5626831054688	729.6384887695314	-1195.14208984375	341.2119750976562	587.4175415039064	-1194.159057617188	306.9022827148438	843.4078369140626	-1358.887817382812	183.3583831787109	750.7305908203126	-1455.113525390625	130.5185241699219	712.7200317382814	-1444.432495117188	157.0559539794922	699.2297973632814	-1485.78125	125.555046081543	633.1272583007814	-1555.2236328125	198.0620880126953	622.7713012695314	-1587.287719726562	170.4253387451172	666.6724243164064	-1577.680541992188	233.1031036376953	743.9280395507814	-1610.038330078125	249.6565399169922	765.0508422851564	-1535.339233398438	309.6885681152344	840.6752929687501	-1037.197387695312	187.3543243408203	750.4699096679689	-951.9642944335938	153.0162658691406	702.51806640625	-922.2196655273438	134.4921569824219	715.6727905273439	-969.4402465820312	131.6336975097656	633.5127563476562	-835.8338623046875	145.4880065917969	711.4430541992188	-824.7408447265625	174.7411346435547	671.8894653320312	-811.9207763671875	219.5250701904297	751.64306640625	-790.6889038085938	250.0048675537109	779.7180786132812	-859.5657958984375	
268	1.335	229.2987213134766	809.1508178710939	-2226.459716796875	211.8983306884766	840.8448486328125	-206.0224151611328	502.4116516113281	1005.095764160156	-1177.589111328125	448.3458557128906	1026.845458984375	-1116.10791015625	460.8637390136719	1027.311401367188	-1252.066284179688	271.654541015625	888.6932373046876	-1192.414184570312	148.7302703857422	780.5804443359376	-1201.150146484375	128.7958068847656	760.9468383789064	-1219.740844726562	118.8536224365234	753.6039428710939	-1171.061279296875	89.60366821289062	708.2496948242189	-1209.991943359375	60.85675048828125	668.9838867187501	-1212.598876953125	26.54961585998535	662.0228271484376	-1227.692626953125	23.46323394775391	658.6820678710939	-1177.462036132812	-13.72659873962402	612.7767333984376	-1208.569091796875	-78.05612945556641	488.5969848632813	-1236.726684570312	-77.13507080078125	489.0735778808594	-1185.326049804688	-86.10161590576172	428.2515869140626	-1209.9677734375	131.4752960205078	380.8125915527345	-1502.028686523438	180.8889923095703	325.450653076172	-1527.762939453125	184.1177978515625	375.047576904297	-1532.811645507812	227.2500457763672	292.7446594238282	-1616.344848632812	162.9356079101562	255.9414825439454	-1586.515380859375	205.7518157958984	236.194808959961	-1604.5390625	80.87244415283203	71.10043334960946	-1484.716064453125	285.8100280761719	48.01527023315439	-1544.472534179688	215.8002471923828	25.10015487670908	-1633.7431640625	99.40348815917969	377.0130004882813	-904.40380859375	141.4122009277344	435.2659912109376	-869.1074829101562	149.2734069824219	386.1472473144532	-867.9769287109375	191.07763671875	312.8389892578126	-778.0830688476562	193.4282531738281	234.0216064453126	-777.56494140625	158.9482727050781	263.3226623535157	-798.0304565429688	59.63182830810547	66.87982177734381	-919.2149658203125	251.9355163574219	46.37083816528325	-836.5162963867188	169.8077545166016	37.22922515869146	-756.7142944335938	383.4956665039062	727.8485717773439	-1195.0986328125	341.1634826660156	585.5874023437501	-1194.121826171875	306.8856201171875	841.6088256835939	-1358.87353515625	183.4624786376953	748.9353637695314	-1455.120361328125	130.5407104492188	710.9674682617189	-1444.512573242188	157.0848388671875	697.4557495117189	-1485.847534179688	125.5884552001953	631.3305053710939	-1555.28076171875	198.1043853759766	620.9544067382814	-1587.303466796875	170.2075347900391	664.9756469726564	-1577.70458984375	233.1532745361328	742.1346435546876	-1610.05419921875	249.66845703125	763.2745361328126	-1535.3427734375	309.6141662597656	838.8670654296876	-1037.174560546875	187.3041534423828	748.6881713867189	-951.868408203125	152.950927734375	700.74462890625	-922.1226196289062	134.4324493408203	713.9120483398439	-969.3449096679688	131.5656585693359	631.7200317382812	-835.7857666015625	145.4185180664062	709.650634765625	-824.6832275390625	174.6819458007812	670.0963134765625	-811.8806762695312	219.4555511474609	749.8734130859375	-790.66259765625	249.9250335693359	777.942626953125	-859.5371704101562	
269	1.34	229.3401947021484	807.2562255859376	-2226.468505859375	211.7669067382812	839.1220092773438	-206.0370025634765	502.2433166503906	1003.406372070313	-1177.49658203125	448.1636962890625	1025.122436523438	-1116.019775390625	460.6959228515625	1025.613159179688	-1251.97412109375	271.5547790527344	886.9525146484376	-1192.372314453125	148.6340026855469	778.9310302734376	-1201.13916015625	128.7457122802734	759.2994995117189	-1219.757080078125	118.7630920410156	751.9765014648439	-1171.0810546875	89.48109436035156	706.6357421875001	-1210.011108398438	60.65154647827148	667.4583129882814	-1212.63037109375	26.34712600708008	660.4846801757814	-1227.737060546875	23.24716758728027	657.1351318359376	-1177.510009765625	-13.88992595672607	611.2003173828126	-1208.626708984375	-78.10304260253906	486.6687927246094	-1236.81884765625	-77.20252990722656	487.1621704101563	-1185.422973632812	-86.02638244628906	426.2942810058594	-1210.037841796875	131.7663421630859	379.7176818847657	-1501.972900390625	181.3371124267578	324.6485595703126	-1527.871459960938	184.4132537841797	374.2270507812501	-1532.780883789062	227.4964904785156	292.6263427734376	-1616.292724609375	163.1356811523438	255.9105072021485	-1586.44677734375	205.9181213378906	236.1259307861329	-1604.489135742188	80.89739990234375	71.0830612182618	-1484.66162109375	285.8195495605469	47.99721908569345	-1544.425659179688	215.8059844970703	25.13466072082529	-1633.707397460938	99.46375274658203	375.9875183105469	-904.3861083984375	141.2036437988281	434.5058288574219	-869.2236328125	149.2579803466797	385.4245605468751	-867.9440307617188	191.0565185546875	312.8170471191407	-778.0740356445312	193.4371490478516	233.9947357177735	-777.578125	158.9556884765625	263.2947998046876	-798.0518188476562	59.67256546020508	66.86777496337896	-919.2714233398438	251.9356231689453	46.36407089233403	-836.5591430664062	169.8248138427734	37.25929641723638	-756.7559814453125	383.4274291992188	726.0988769531251	-1195.053100585938	341.1178588867188	583.8046875000001	-1194.079223632812	306.8635559082031	839.8458251953126	-1358.857299804688	183.5617523193359	747.1721801757814	-1455.123413085938	130.5606536865234	709.2448120117189	-1444.587280273438	157.1126556396484	695.7130737304689	-1485.908203125	125.6226119995117	629.5640258789064	-1555.330444335938	198.1477813720703	619.1698608398439	-1587.3134765625	169.9778900146484	663.3129272460939	-1577.724487304688	233.1990509033203	740.3738403320314	-1610.066162109375	249.6752166748047	761.5322265625001	-1535.341674804688	309.5346069335938	837.0963745117189	-1037.151245117188	187.2474975585938	746.9440307617189	-951.775390625	152.8789672851562	699.0081176757812	-922.02978515625	134.3675537109375	712.1869506835939	-969.2537841796875	131.4935150146484	629.9617919921875	-835.7403564453125	145.3402099609375	707.8938598632812	-824.6283569335938	174.6171417236328	668.3375854492188	-811.84228515625	219.3841400146484	748.13671875	-790.6351318359375	249.8417053222656	776.2008056640625	-859.5079345703125	
